<?xml version="1.0" standalone="no"?>
<!DOCTYPE svg PUBLIC "-//W3C//DTD SVG 20010904//EN"
 "http://www.w3.org/TR/2001/REC-SVG-20010904/DTD/svg10.dtd">
<svg version="1.0" xmlns="http://www.w3.org/2000/svg"
 width="1024.000000pt" height="1024.000000pt" viewBox="0 0 1024.000000 1024.000000"
 preserveAspectRatio="xMidYMid meet">

<g transform="translate(0.000000,1024.000000) scale(0.100000,-0.100000)"
fill="#000000" stroke="none">
<path d="M4010 6984 c-127 -18 -286 -59 -390 -99 -94 -36 -225 -100 -234 -113
-3 -5 -19 -144 -35 -308 -17 -164 -33 -321 -36 -347 l-6 -48 103 3 102 3 18
87 c40 203 105 335 212 436 109 102 244 152 411 152 192 0 344 -76 438 -218
26 -37 51 -82 58 -98 11 -27 13 -23 35 81 12 61 37 175 53 255 17 80 31 148
31 152 0 13 -130 47 -235 63 -124 18 -395 18 -525 -1z"/>
<path d="M4870 6918 c0 -2 -38 -190 -84 -418 -46 -228 -81 -419 -77 -423 4 -4
49 -6 100 -5 l93 3 28 112 c66 261 177 384 395 438 60 15 135 19 513 22 248 3
442 1 442 -4 0 -5 -73 -139 -161 -298 -218 -390 -499 -898 -534 -962 l-28 -53
-124 0 -123 0 0 -125 0 -125 51 0 51 0 -25 -43 -25 -42 25 -30 c35 -44 110
-194 137 -278 30 -93 46 -182 54 -298 l7 -94 121 220 c67 121 163 298 214 393
l94 172 133 0 133 0 0 125 0 125 -60 0 c-33 0 -60 3 -60 7 0 3 25 52 56 107
59 104 257 463 406 736 47 85 156 283 242 439 86 156 156 287 156 292 0 8
-2150 14 -2150 7z"/>
<path d="M5215 6478 c-97 -53 -174 -200 -205 -388 -6 -41 -14 -85 -16 -97 -4
-23 -7 -23 -142 -23 l-138 0 -12 -90 c-23 -172 -98 -324 -196 -402 -119 -94
-230 -126 -463 -135 l-163 -6 0 -117 0 -117 183 -6 c206 -6 286 -23 393 -82
218 -122 319 -325 331 -667 l6 -158 60 108 c150 270 377 686 377 693 0 14
-117 106 -189 149 -73 44 -218 99 -313 120 -32 7 -58 16 -58 20 0 4 28 18 63
30 301 111 500 305 569 557 32 115 32 356 0 466 -19 66 -57 158 -65 157 -1 0
-11 -6 -22 -12z"/>
<path d="M5262 4838 c-22 -40 -151 -275 -287 -523 -257 -468 -565 -1040 -565
-1049 0 -20 185 13 314 56 306 102 536 301 661 572 107 231 121 543 35 790
-19 56 -92 201 -110 219 -4 5 -26 -24 -48 -65z"/>
<path d="M3303 4273 l-83 -4 1 -277 c1 -152 4 -324 8 -382 l6 -105 75 -43
c102 -58 219 -105 347 -141 166 -47 273 -63 458 -68 l170 -5 49 93 c27 52 64
122 83 157 l35 62 -44 -18 c-78 -34 -151 -47 -258 -46 -193 1 -318 51 -446
178 -120 120 -184 249 -241 486 -25 104 -34 121 -63 118 -8 -1 -52 -4 -97 -5z"/>
<path d="M6894 4183 c-40 -181 -107 -331 -183 -415 -59 -64 -154 -118 -252
-142 -103 -25 -321 -36 -750 -36 l-396 0 -74 -72 c-41 -40 -115 -100 -164
-132 -50 -33 -93 -62 -97 -65 -4 -3 436 -6 977 -6 643 0 987 3 993 10 5 6 16
51 25 100 8 50 43 238 76 419 34 181 61 338 61 348 0 16 -10 18 -105 18 l-105
0 -6 -27z"/>
</g>
</svg>
