<?xml version="1.0" standalone="no"?>
<!DOCTYPE svg PUBLIC "-//W3C//DTD SVG 20010904//EN"
 "http://www.w3.org/TR/2001/REC-SVG-20010904/DTD/svg10.dtd">
<svg version="1.0" xmlns="http://www.w3.org/2000/svg"
 width="1080.000000pt" height="1080.000000pt" viewBox="0 0 1080.000000 1080.000000"
 preserveAspectRatio="xMidYMid meet">

<g transform="translate(0.000000,1080.000000) scale(0.100000,-0.100000)"
fill="#000000" stroke="none">
<path d="M4600 8203 c-216 -32 -371 -76 -490 -138 -79 -42 -69 -9 -100 -325
-11 -113 -22 -222 -25 -243 l-5 -38 82 3 82 3 18 85 c56 261 170 398 370 445
216 51 424 -36 509 -212 12 -26 24 -43 26 -37 13 43 82 398 78 404 -6 9 -114
36 -205 50 -61 9 -286 12 -340 3z"/>
<path d="M5843 8142 l-613 -2 -5 -23 c-14 -60 -125 -620 -125 -632 0 -12 16
-15 78 -15 l78 0 18 78 c34 149 105 261 201 317 86 51 142 58 528 62 196 3
357 3 357 0 0 -6 -90 -170 -295 -537 -81 -146 -179 -322 -218 -392 l-70 -128
-99 0 -98 0 0 -95 0 -95 33 0 c45 0 49 -6 30 -45 -15 -32 -15 -34 10 -67 37
-48 92 -170 112 -248 9 -36 22 -111 29 -167 l11 -103 169 310 169 309 106 3
106 3 3 98 3 97 -51 0 c-27 0 -50 3 -50 6 0 3 71 134 159 292 417 755 531 963
531 973 0 5 -111 7 -247 6 -137 -1 -524 -3 -860 -5z"/>
<path d="M5471 7764 c-64 -55 -120 -184 -136 -317 l-7 -57 -113 0 -112 0 -6
-67 c-14 -142 -88 -287 -180 -349 -93 -64 -222 -94 -399 -94 l-78 0 0 -94 0
-93 148 -6 c162 -6 220 -19 310 -67 168 -89 254 -259 270 -535 l7 -110 86 155
c48 85 126 227 174 314 l87 160 -33 28 c-96 81 -174 123 -304 163 -49 15 -97
30 -105 32 -10 3 -3 10 20 20 194 85 297 154 367 244 111 145 154 333 119 529
-13 74 -52 180 -65 180 -4 0 -26 -16 -50 -36z"/>
<path d="M5559 6508 c-7 -13 -110 -201 -229 -418 -119 -217 -272 -498 -340
-625 -67 -126 -125 -234 -128 -239 -9 -15 121 3 213 29 247 72 449 233 551
440 90 185 113 393 64 600 -14 57 -97 235 -111 235 -4 0 -14 -10 -20 -22z"/>
<path d="M3912 5725 c6 -350 -7 -309 118 -371 183 -91 377 -136 590 -138 l145
-1 62 115 c34 63 61 116 59 117 -1 1 -31 -7 -66 -19 -78 -25 -218 -29 -300 -9
-205 51 -341 215 -410 496 l-27 110 -88 3 -88 3 5 -306z"/>
<path d="M6838 5913 c-38 -159 -106 -281 -191 -339 -111 -77 -245 -93 -747
-94 l-316 0 -61 -60 c-34 -33 -95 -81 -135 -107 l-73 -48 784 -3 c432 -1 788
1 792 5 4 5 14 49 23 98 9 50 37 200 61 333 25 134 45 252 45 263 0 17 -8 19
-83 19 l-83 0 -16 -67z"/>
<path d="M2387 4288 c-26 -14 -67 -22 -123 -26 l-84 -5 0 -39 0 -40 70 4 71 3
-3 -610 c-3 -594 -4 -611 -23 -645 -15 -25 -31 -38 -58 -44 -32 -8 -37 -14
-37 -38 l0 -28 200 0 200 0 0 40 0 40 -58 0 -57 0 3 358 4 357 30 32 c49 51
140 87 223 87 119 1 182 -57 210 -189 18 -84 21 -528 5 -587 -12 -42 -52 -78
-86 -78 -20 0 -24 -5 -24 -30 l0 -30 200 0 200 0 0 40 0 40 -57 0 -58 0 3 231
c7 466 -33 615 -180 679 -123 53 -281 30 -415 -60 -24 -17 -46 -30 -49 -30 -2
0 -4 133 -4 295 l0 295 -32 -1 c-18 -1 -50 -11 -71 -21z"/>
<path d="M7363 4229 c-122 -15 -214 -74 -262 -171 -58 -116 -36 -266 59 -412
28 -42 50 -78 50 -81 0 -2 -27 -18 -59 -35 -86 -46 -162 -118 -202 -192 -33
-60 -34 -67 -34 -168 0 -94 3 -111 28 -161 51 -104 151 -174 294 -204 191 -41
375 5 507 125 l56 52 47 -40 c27 -21 75 -57 107 -78 58 -38 62 -39 163 -42
l103 -4 0 36 c0 26 -4 36 -15 36 -39 0 -141 70 -265 182 l-63 57 17 59 c9 33
16 95 16 143 0 70 -4 94 -24 132 l-23 47 78 0 79 0 0 35 0 35 -175 0 -175 0 0
-29 c0 -25 5 -30 34 -35 84 -16 121 -87 114 -221 -2 -46 -8 -88 -12 -92 -7 -7
-283 262 -337 329 l-29 36 65 37 c91 51 188 144 222 213 37 76 40 194 6 258
-61 115 -201 172 -370 153z m147 -77 c19 -9 48 -37 65 -60 28 -41 30 -50 30
-135 0 -82 -3 -98 -29 -146 -28 -55 -108 -147 -158 -182 l-26 -19 -48 62
c-145 193 -150 394 -10 479 40 25 128 25 176 1z m183 -1154 c-62 -63 -150
-101 -248 -106 -109 -6 -179 15 -244 74 -135 122 -130 355 10 496 l47 47 236
-236 236 -237 -37 -38z"/>
<path d="M920 4132 c0 -38 -3 -130 -7 -205 l-6 -137 35 0 35 0 7 76 c8 92 37
171 74 207 49 47 90 57 227 57 l125 0 0 -570 c0 -613 0 -618 -51 -654 -13 -9
-36 -16 -51 -16 -25 0 -28 -3 -28 -35 l0 -35 230 0 230 0 0 43 0 44 -80 -5
-80 -5 0 617 0 616 123 0 c147 0 182 -9 230 -57 43 -43 65 -104 74 -210 l6
-73 33 0 34 0 0 138 c0 75 -3 167 -7 205 l-6 67 -573 0 -574 0 0 -68z"/>
<path d="M8847 4063 c-4 -75 -7 -165 -7 -200 l0 -63 30 0 c17 0 30 3 30 8 3
63 25 162 45 202 53 105 109 119 468 120 l229 0 -30 -37 c-16 -21 -91 -135
-167 -253 -162 -253 -402 -610 -539 -800 -88 -123 -96 -138 -94 -175 l3 -40
508 -3 507 -2 0 108 c0 60 3 150 6 200 l7 92 -35 0 -35 0 -5 -58 c-10 -107
-70 -192 -165 -234 -50 -22 -95 -26 -390 -33 l-223 -5 58 73 c31 40 220 320
420 623 283 431 362 558 362 582 l0 32 -488 0 -489 0 -6 -137z"/>
<path d="M3922 3821 c-70 -24 -156 -85 -197 -138 -31 -40 -33 -41 -39 -20 -3
12 -6 55 -6 95 0 71 0 72 -26 72 -14 0 -44 -11 -67 -24 -29 -17 -65 -26 -119
-31 l-78 -7 0 -34 0 -34 68 0 67 0 -2 -337 c-2 -186 -5 -358 -9 -382 -7 -53
-49 -101 -88 -101 -22 0 -26 -4 -26 -30 l0 -30 205 0 205 0 0 40 0 40 -66 0
c-56 0 -65 2 -60 16 3 9 6 150 6 314 l0 298 43 58 c52 71 139 133 196 141 39
5 41 4 41 -20 0 -37 38 -77 81 -83 31 -5 42 -1 70 24 27 24 34 37 34 69 0 104
-103 149 -233 104z"/>
<path d="M4633 3825 c-168 -47 -290 -166 -348 -338 -30 -91 -34 -236 -10 -332
60 -233 257 -378 490 -362 139 10 274 73 355 165 22 24 40 48 40 52 0 4 -9 15
-20 25 -19 17 -21 17 -68 -28 -142 -132 -358 -156 -480 -52 -76 65 -131 219
-132 366 l0 66 83 6 c45 4 200 7 345 7 l262 0 0 48 c-1 155 -102 311 -238 363
-74 28 -207 35 -279 14z m222 -88 c54 -30 105 -128 108 -207 l2 -55 -240 -3
c-132 -1 -245 0 -252 2 -31 12 49 191 104 233 75 57 205 71 278 30z"/>
<path d="M5703 3825 c-174 -49 -311 -191 -358 -372 -19 -73 -19 -210 0 -292
53 -224 239 -371 469 -371 123 0 282 67 364 154 29 30 52 59 52 64 0 5 -9 17
-20 27 -20 18 -21 18 -35 -2 -26 -37 -135 -102 -207 -124 -90 -28 -187 -23
-256 13 -99 51 -167 193 -179 373 l-6 92 84 6 c46 4 202 7 347 7 l262 0 0 48
c0 64 -24 154 -56 208 -37 62 -115 129 -182 155 -74 28 -207 35 -279 14z m214
-81 c19 -9 46 -32 60 -50 29 -39 63 -140 63 -190 l0 -34 -250 0 c-283 0 -263
-8 -235 87 27 91 88 162 164 189 52 19 156 17 198 -2z"/>
</g>
</svg>
